<?xml version="1.0" encoding="utf-8"?>
<!-- Designed by Vexels.com - 2016 All Rights Reserved - https://vexels.com/terms-and-conditions/  -->

<svg version="1.0" id="Capa_1" xmlns="http://www.w3.org/2000/svg" x="0px" y="0px"
     width="1200px" height="1200px" viewBox="0 0 1200 1200" enable-background="new 0 0 1200 1200" xml:space="preserve">
<g>
	<path fill-rule="evenodd" clip-rule="evenodd" fill="#1D994B" d="M640.968,556.539c-18.012,5.918-38.1-2.163-46.754-19.635
		c-8.709-17.6-2.78-38.608,13.078-49.274c7.638-7.129,24.643-11.705,34.097-11.424c48.086,1.472,70.921,0.909,71.787,1.97
		c1.146,1.396-14.215,19.277-42.037,58.156c-5.571,7.788-19.851,18.714-30.17,20.228V556.539z"/>
	<path fill-rule="evenodd" clip-rule="evenodd" fill="#1D994B" d="M648.875,459.418c-11.175-2.229-19.299-12.353-18.65-24.059
		c0.639-11.791,9.942-21.018,21.376-21.916c6.112-1.46,16.357,1.169,21.203,4.09c24.697,14.982,36.802,21.419,36.953,22.23
		c0.184,1.071-13.132,5.895-39.149,17.99c-5.203,2.424-15.901,3.916-21.754,1.677L648.875,459.418z"/>
	<path fill-rule="evenodd" clip-rule="evenodd" fill="#1D994B" d="M546.562,635.876c14.691-6.274,22.901-22.566,18.627-38.446
		c-4.295-15.967-19.742-25.963-35.709-23.864c-8.806-0.259-22.112,6.317-27.932,11.759c-29.586,27.704-44.33,40.08-44.298,41.226
		c0.043,1.514,19.721,4.273,58.967,13.349c7.865,1.817,22.978,0.779,30.366-3.981L546.562,635.876z"/>
	<path fill-rule="evenodd" clip-rule="evenodd" fill="#42B64F" d="M573.519,729.195c0-18.931,0.681-44.979,1.396-72.997
		c4.749-182.911,11.931-459.562-181.261-474.556l3.158-42.405c233.5,18.13,225.679,319.024,220.519,517.978
		c-0.649,24.664-1.244,47.619-1.244,71.98H573.519z"/>
	<path fill-rule="evenodd" clip-rule="evenodd" fill="#42B64F" d="M555.216,735.859c0-12.246,0.681-28.408,1.417-45.759
		c4.608-110,11.575-276.365-180.688-285.592l1.989-42.427c234.452,11.283,226.404,202.94,221.092,329.664
		c-0.638,15.296-1.233,29.532-1.233,44.114H555.216z"/>
	<path fill-rule="evenodd" clip-rule="evenodd" fill="#42B64F" d="M616.065,720.887c0-8.697-0.595-17.957-1.233-27.909
		c-0.552-8.438-1.125-17.352-1.471-28.365l0,0c-2.628-84.026,14.56-187.908,222.898-194.42l1.331,42.405
		c-169.709,5.3-183.847,85.676-181.824,150.696v0.086c0.259,8.135,0.876,17.785,1.471,26.937c0.724,11.293,1.407,21.808,1.407,30.57
		H616.065z"/>
	<path fill-rule="evenodd" clip-rule="evenodd" fill="#42B64F" d="M592.786,739.191c0-20.944-0.606-40.827-1.245-62.18
		c-5.192-173.37-13.078-435.591,220.681-451.297l2.835,42.405c-192.945,12.959-185.826,250.613-181.11,407.746
		c0.747,24.232,1.417,46.775,1.417,63.327H592.786z"/>
	<path fill-rule="evenodd" clip-rule="evenodd" fill="#C7864A" d="M360.302,712.579h465.659c10.06,0,19.86,6.664,18.292,14.561
		l-77.314,391.643c-1.557,7.897-8.222,14.561-18.282,14.561H438.255c-10.06,0-16.725-6.664-18.282-14.561L342.021,727.14
		C340.442,719.243,350.242,712.579,360.302,712.579z"/>
	<path fill-rule="evenodd" clip-rule="evenodd" fill="#9E673A" d="M338.018,682.657h515.215c8.794,0,15.978,7.161,15.978,15.946
		v57.875c0,8.784-7.184,15.967-15.978,15.967H338.018c-8.783,0-15.956-7.182-15.956-15.967v-57.875
		C322.062,689.818,329.235,682.657,338.018,682.657z"/>
	<path fill-rule="evenodd" clip-rule="evenodd" fill="#1D994B" d="M380.856,305.18c39.506,8.871,67.513,45.662,64.192,87.191
		c-3.299,41.799-37.18,73.852-77.941,76.005c-21.798,4.674-58.026-5.528-75.042-16.421
		c-86.509-55.366-129.001-79.359-129.434-82.215c-0.573-3.829,47.176-19.796,140.77-60.578c18.758-8.178,56.88-12.571,77.498-4.057
		L380.856,305.18z"/>
	<path fill-rule="evenodd" clip-rule="evenodd" fill="#1D994B" d="M426.659,78.376c37.386,15.513,58.675,56.533,48.323,96.904
		c-10.439,40.609-49.285,66.4-89.83,61.531c-22.273,0.887-56.208-15.383-71.104-29.035
		c-75.757-69.363-113.51-100.28-113.445-103.179c0.086-3.852,49.858-11.413,149.056-35.547c19.883-4.835,58.199-2.64,77.065,9.26
		L426.659,78.376z"/>
	<path fill-rule="evenodd" clip-rule="evenodd" fill="#1D994B" d="M809.854,314.288c-38.793,11.553-81.187-6.859-98.604-44.721
		c-17.524-38.088-3.634-82.604,30.896-104.401c16.735-14.723,53.331-23.506,73.484-22.316c102.552,6.036,151.35,6.231,153.114,8.513
		c2.379,3.062-31.48,40.296-93.249,121.623c-12.376,16.291-43.497,38.738-65.641,41.41V314.288z"/>
	<path fill-rule="evenodd" clip-rule="evenodd" fill="#1D994B" d="M817.588,565.712c-39.268-9.865-66.323-47.36-61.953-88.813
		c4.392-41.681,39.063-72.879,79.867-73.992c21.927-4.111,57.863,7.031,74.577,18.346c85.082,57.572,126.946,82.647,127.292,85.525
		c0.487,3.829-47.641,18.574-142.264,56.944c-18.963,7.692-57.182,11.099-77.584,2.077L817.588,565.712z"/>
	<path fill-rule="evenodd" clip-rule="evenodd" fill="#1D994B" d="M668.964,346.265c-3.256-15.383,5.214-31.241,20.402-36.78
		c15.307-5.604,32.118,1.168,39.474,15.241c5.182,6.934,7.443,21.387,6.338,29.154c-5.549,39.517-7.15,58.394-8.091,59.021
		c-1.266,0.833-14.615-13.447-44.18-39.917c-5.917-5.312-13.642-18.066-13.987-26.72H668.964z"/>
	<path fill-rule="evenodd" clip-rule="evenodd" fill="#1D994B" d="M685.06,254.553c5.041,18.022-3.807,37.493-21.451,45.261
		c-17.751,7.788-38.23,1.028-48.03-15.123c-6.685-7.854-10.461-24.838-9.747-34.151c3.591-47.382,4.068-69.937,5.149-70.738
		c1.418-1.06,18.379,14.875,55.506,44.071c7.421,5.863,17.568,20.424,18.628,30.68H685.06z"/>
	<path fill-rule="evenodd" clip-rule="evenodd" fill="#1D994B" d="M555.671,206.457c-16.79,8.329-37.56,3.267-48.474-12.614
		c-10.991-15.978-8.178-37.364,5.841-50.01c6.469-8.017,22.458-14.907,31.74-15.957c47.197-5.333,69.449-9.087,70.444-8.199
		c1.32,1.212-11.174,20.879-32.907,62.796c-4.348,8.384-16.778,21.073-26.643,24.027V206.457z"/>
	<path fill-rule="evenodd" clip-rule="evenodd" fill="#1D994B" d="M500.273,269.805c13.49-8.34,31.404-5.689,41.842,6.837
		c10.526,12.635,9.812,30.874-1.027,42.643c-4.825,7.27-17.764,14.323-25.509,15.924c-39.387,8.178-57.863,13.09-58.762,12.408
		c-1.211-0.919,7.8-18.455,22.847-55.505c3.019-7.421,12.505-19.083,20.597-22.339L500.273,269.805z"/>
	<path fill-rule="evenodd" clip-rule="evenodd" fill="#1D994B" d="M456.948,459.061c21.603-13.338,50.28-9.12,67.005,10.958
		c16.832,20.186,15.697,49.416-1.645,68.238c-7.734,11.651-28.45,22.944-40.847,25.508c-63.056,13.09-92.621,20.944-94.06,19.862
		c-1.936-1.471,12.473-29.543,36.564-88.857c4.835-11.877,20.013-30.549,32.973-35.763L456.948,459.061z"/>
	<path fill-rule="evenodd" clip-rule="evenodd" fill="#1D994B" d="M682.886,607.837c-12.558-16.141-11.661-39.463,2.953-54.608
		c14.713-15.231,38.209-16.876,54.803-4.609c10.006,5.171,20.845,20.781,23.972,30.463c15.978,49.394,24.838,72.398,24.091,73.653
		c-1.006,1.666-24.74-7.443-74.34-21.576c-9.941-2.856-26.211-13.37-31.533-23.312L682.886,607.837z"/>
	<path fill-rule="evenodd" clip-rule="evenodd" fill="#1D994B" d="M561.609,414.189c7.886-8.189,8.762-21.17,1.558-30.408
		c-7.248-9.282-20.164-11.554-30.062-5.755c-5.842,2.293-12.754,10.297-15.047,15.491c-11.716,26.395-17.969,38.619-17.623,39.333
		c0.455,0.995,14.128-2.662,42.406-7.605c5.657-0.985,15.284-5.853,18.79-11.045L561.609,414.189z"/>
</g>
</svg>
