<?xml version="1.0" encoding="utf-8"?>
<!-- Svg Vector Icons : http://www.onlinewebfonts.com/icon -->
<!DOCTYPE svg PUBLIC "-//W3C//DTD SVG 1.1//EN" "http://www.w3.org/Graphics/SVG/1.1/DTD/svg11.dtd">
<svg version="1.1" xmlns="http://www.w3.org/2000/svg" xmlns:xlink="http://www.w3.org/1999/xlink" x="0px" y="0px" viewBox="0 0 1000 1000" enable-background="new 0 0 1000 1000" xml:space="preserve">
<metadata> Svg Vector Icons : http://www.onlinewebfonts.com/icon </metadata>
<g><path d="M920.8,128.8c-286.6,0-407.1-108.7-407.5-109.7c-2.1-5.4-7.2-8.9-13.2-9.1c0,0-0.1,0-0.2,0c-5.6,0-10.9,3.6-13.1,8.8c-0.4,1.1-122,110-407.5,110c-7.9,0-14.3,6.5-14.3,14.3L137,630.5c30.6,204,342.7,351.9,357.3,358.3c1.8,0.8,3.7,1.2,5.7,1.2c1.9,0,3.9-0.3,5.8-1.2c14.6-6.4,333-163.3,357.2-358.3l72.1-487.4C935.1,135.3,928.7,128.8,920.8,128.8z M769.8,649.5c-2.7,5.9-5.6,11.8-8.8,17.6c-107.7,7.3-207.1,31.1-344.7,100.9c-16.8,8.5-36.4,19.9-54.3,30.8c-16.4-12.7-33-26.6-48.8-41.5c27.2-14.8,61-31.3,102.2-45C547.2,668.4,644.8,651.3,769.8,649.5z M622.3,793.7c-16.2,13.4-45.4,39.3-73.4,65.1c-24.5,14.3-41.6,22.7-44.4,23.9c-1.4,0.7-3,0.9-4.5,0.9c-1.5,0-3-0.3-4.5-0.9c-3-1.3-22.1-10.7-49-26.7c44.5-36.4,95.9-70.3,152.9-99.7c47.4-24.4,95.1-43.7,141.7-58.2c-8.8,12-18.5,23.6-28.9,34.8C680.9,751.1,649.3,771.3,622.3,793.7z M784.2,602.1c-1.1,7-2.7,13.9-4.6,20.8c-82.4-3.1-170.6-1.7-262.1,4.8c-0.8-0.6-1.6-1.2-2.4-1.9c-8-6.5-17.4-24.6-25-48.5c1.7-2.7,7.8-12,15.8-20.2c9.5-9.6,32.7-19.3,32.7-19.3s-21.4,3.6-30.5,9.7c-5.6,3.7-15.4,11.1-22,16.1c-3.3-12.3-6-25.6-7.9-39.4c-0.2-1.7-0.5-3.4-0.6-5.1c-0.1-0.6-0.1-1.2-0.2-1.8c-0.2-1.8-0.4-3.5-0.6-5.3c0-0.4-0.1-0.8-0.1-1.2c-0.5-5.8-0.9-11.6-1.1-17.4c0-0.6-0.1-1.3-0.1-1.9c0-1.6-0.1-3.1-0.1-4.6c0-0.9,0-1.8,0-2.7c0-1.5,0-2.9,0.1-4.4c0-1,0.1-2,0.1-3c0-1.4,0.1-2.8,0.2-4.2c0-1.1,0.1-2.2,0.2-3.3c0-0.2,0-0.3,0-0.5c2.9-5.1,9-15.2,16.9-24.4c11.1-12.9,36.1-26.9,36.1-26.9s-23.2,6.2-34.2,14.6c-4.1,3.1-10.1,8.1-15.9,13c0-0.2,0.1-0.4,0.1-0.6c0.2-1,0.4-2,0.6-3c0.3-1.4,0.6-2.7,0.9-4.1c0.2-0.9,0.5-1.9,0.7-2.8c0.4-1.5,0.8-2.9,1.2-4.4c0.2-0.8,0.4-1.5,0.6-2.3c0.7-2.2,1.4-4.4,2.1-6.5c6.9-19,16.5-33.6,22.5-46.1c21.8-33,42.8-39.5,42.8-39.5s-26.3,0-57.7,40.4c-4.8-7.5-11.8-17.8-17.7-24.9c-1.4-1.7-2.8-3.3-4-4.7c-9.8-11.1-34-24.9-34-24.9s22.7,21,31.7,36.9c7.6,13.3,12.4,27.6,13.7,31.9c-4.7,7.2-9.5,15.4-14.2,24.7c-5.7,11.1-9.7,22.8-12.5,34.7c0,0,0,0,0-0.1c0,0.1,0,0.2-0.1,0.2c-2.8,11.9-4.3,24-4.8,36c-5-5-9.9-9.8-13.6-13.1c-12.4-11.1-39.9-22.9-39.9-22.9s28.6,21.1,40.4,37.6c5.5,7.6,9.9,15.6,13.2,22.1c0.6,12.3,2,24.3,3.9,35.5c0,0.1,0,0.2,0.1,0.3c1.1,6.4,2.2,12.6,3.5,18.5c0,0.2,0.1,0.3,0.1,0.4c0.6,2.6,1.1,5.2,1.7,7.8c0.1,0.4,0.2,0.8,0.3,1.2c1.3,5.3,2.5,10.3,3.8,14.9c0.1,0.4,0.2,0.8,0.3,1.2c0.5,2,1.1,3.8,1.6,5.7c0.1,0.3,0.2,0.6,0.2,0.9c3.4,11.9,6.2,20.5,6.9,24.3c0.8,3.9,0.1,7.6-1.4,10.9c-81.7,7.3-160.2,18.2-233.8,32c-10.6-19.6-18.3-40.1-22.2-61.3l-72.1-381.5c0-6.2,5.1-11.3,11.3-11.3c223.5,0,334.4-85.1,334.6-86c1.7-4.2,5.9-6.9,10.3-6.9c0,0,0.2,0,0.2,0c4.6,0.1,8.7,2.8,10.3,7.1c0.3,0.8,110.4,85.9,334.7,85.9c6.2,0,11.1,5,11.1,11.3L784.2,602.1z"/><path d="M539.4,378.7c-17.8,9.7-23.6,19.2-24.8,29c1.6-1.4,3.7-2.7,6.2-4.1c12.1-6.6,38.5,2.3,38.5,2.3s-18.4,24.2-28.9,29.2c-2.3,1.1-4.6,1.5-6.8,1.5c8.3,7.9,21.7,12.5,35.3,6c21.2-10.2,58.6-59.3,58.6-59.3S564,365.3,539.4,378.7z"/><path d="M551.6,271c-21.4,20.9-25.7,36.8-23.4,51.3c1.8-2.6,4.1-5.4,7.1-8.4c14.6-14.2,55.6-12.4,55.6-12.4s-16.3,41.9-29.1,53.2c-2.8,2.5-5.9,4-9,4.9c15.1,7.9,35.9,8.9,52.5-5.8c25.9-23.1,59-107.9,59-107.9S581.1,242.1,551.6,271z"/><path d="M335.7,373.6c0,0,1.2,58.7,22.9,78c15.7,14,27.1,16.4,37.1,14c-1.9-1.1-4-2.6-6.2-4.6c-10.7-9.6-11.3-38.5-11.3-38.5s30.1,9.5,38.7,17.9c1.9,1.9,3.1,4,3.9,6.1c4.8-10.9,4.6-25.6-6.5-36.6C396.8,392.9,335.7,373.6,335.7,373.6z"/><path d="M354,228.6c0,0,1.6,74.3,29,98.8c19.9,17.8,34.3,20.7,47,17.8c-2.4-1.4-5-3.3-7.9-5.9c-13.5-12.1-14.3-48.7-14.3-48.7s38.2,12,49,22.7c2.4,2.4,4,5,4.9,7.7c6.1-13.9,5.8-32.5-8.2-46.4C431.4,253,354,228.6,354,228.6z"/><path d="M536.3,507.5c-14,9.4-18.1,17.7-18.2,26c1.2-1.2,2.8-2.5,4.8-3.9c9.5-6.4,32.1-1.2,32.1-1.2s-13.4,21.5-21.6,26.5c-1.8,1.1-3.7,1.6-5.5,1.8c7.6,5.9,19,8.7,29.7,2.2c16.8-10.1,43.9-53.7,43.9-53.7S555.7,494.5,536.3,507.5z"/></g>
</svg>